<svg width="1920" height="1080" viewBox="0 0 1920 1080" fill="none" xmlns="http://www.w3.org/2000/svg">
<rect width="1920" height="1080" fill="#0B2560"/>
<path d="M804 914.5C804 1099.79 653.792 1250 468.5 1250C283.208 1250 133 1099.79 133 914.5C133 729.208 283.208 579 468.5 579C653.792 579 804 729.208 804 914.5Z" fill="url(#paint0_linear_159_2)"/>
<path d="M1368 766.5C1368 828.632 1317.63 879 1255.5 879C1193.37 879 1143 828.632 1143 766.5C1143 704.368 1193.37 654 1255.5 654C1317.63 654 1368 704.368 1368 766.5Z" fill="url(#paint1_linear_159_2)"/>
<circle cx="513.5" cy="249.5" r="229.5" fill="url(#paint2_linear_159_2)"/>
<circle cx="1644" cy="197" r="408" fill="url(#paint3_linear_159_2)"/>
<defs>
<linearGradient id="paint0_linear_159_2" x1="576.053" y1="579" x2="43.9079" y2="914.5" gradientUnits="userSpaceOnUse">
<stop stop-color="#7E004B"/>
<stop offset="1" stop-color="#702546" stop-opacity="0.08"/>
</linearGradient>
<linearGradient id="paint1_linear_159_2" x1="1291.56" y1="654" x2="1113.13" y2="766.5" gradientUnits="userSpaceOnUse">
<stop stop-color="#7E004B"/>
<stop offset="1" stop-color="#702546" stop-opacity="0.08"/>
</linearGradient>
<linearGradient id="paint2_linear_159_2" x1="587.072" y1="20" x2="223.056" y2="249.5" gradientUnits="userSpaceOnUse">
<stop stop-color="#D64785"/>
<stop offset="1" stop-color="#702546" stop-opacity="0.08"/>
</linearGradient>
<linearGradient id="paint3_linear_159_2" x1="1774.79" y1="-211" x2="1127.66" y2="197" gradientUnits="userSpaceOnUse">
<stop stop-color="#D64785"/>
<stop offset="1" stop-color="#702546" stop-opacity="0.08"/>
</linearGradient>
</defs>
</svg>
