<svg width="359" height="59" viewBox="0 0 359 59" fill="none" xmlns="http://www.w3.org/2000/svg">
<path d="M0.773438 16.875V13.5234H19.6875V16.875H12V48H8.48438V16.875H0.773438ZM45.8625 12.6562C51.0812 12.6562 55.4484 14.3984 58.9641 17.8828C62.4797 21.3672 64.2375 25.6562 64.2375 30.75C64.2375 35.7969 62.4797 40.0781 58.9641 43.5938C55.4641 47.1094 51.1906 48.8672 46.1437 48.8672C41.0344 48.8672 36.7219 47.1172 33.2062 43.6172C29.6906 40.1172 27.9328 35.8828 27.9328 30.9141C27.9328 27.6016 28.7297 24.5312 30.3234 21.7031C31.9328 18.875 34.1203 16.6641 36.8859 15.0703C39.6516 13.4609 42.6437 12.6562 45.8625 12.6562ZM46.0266 16.0312C43.4797 16.0312 41.0656 16.6953 38.7844 18.0234C36.5031 19.3516 34.7219 21.1406 33.4406 23.3906C32.1594 25.6406 31.5187 28.1484 31.5187 30.9141C31.5187 35.0078 32.9328 38.4688 35.7609 41.2969C38.6047 44.1094 42.0266 45.5156 46.0266 45.5156C48.6984 45.5156 51.1672 44.8672 53.4328 43.5703C55.7141 42.2734 57.4875 40.5 58.7531 38.25C60.0344 36 60.675 33.5 60.675 30.75C60.675 28.0156 60.0344 25.5469 58.7531 23.3438C57.4875 21.125 55.6984 19.3516 53.3859 18.0234C51.0734 16.6953 48.6203 16.0312 46.0266 16.0312Z" fill="white"/>
<path d="M78.625 12.6562C83.8438 12.6562 88.2109 14.3984 91.7266 17.8828C95.2422 21.3672 97 25.6562 97 30.75C97 35.7969 95.2422 40.0781 91.7266 43.5938C88.2266 47.1094 83.9531 48.8672 78.9062 48.8672C73.7969 48.8672 69.4844 47.1172 65.9688 43.6172C62.4531 40.1172 60.6953 35.8828 60.6953 30.9141C60.6953 27.6016 61.4922 24.5312 63.0859 21.7031C64.6953 18.875 66.8828 16.6641 69.6484 15.0703C72.4141 13.4609 75.4062 12.6562 78.625 12.6562ZM78.7891 16.0312C76.2422 16.0312 73.8281 16.6953 71.5469 18.0234C69.2656 19.3516 67.4844 21.1406 66.2031 23.3906C64.9219 25.6406 64.2812 28.1484 64.2812 30.9141C64.2812 35.0078 65.6953 38.4688 68.5234 41.2969C71.3672 44.1094 74.7891 45.5156 78.7891 45.5156C81.4609 45.5156 83.9297 44.8672 86.1953 43.5703C88.4766 42.2734 90.25 40.5 91.5156 38.25C92.7969 36 93.4375 33.5 93.4375 30.75C93.4375 28.0156 92.7969 25.5469 91.5156 23.3438C90.25 21.125 88.4609 19.3516 86.1484 18.0234C83.8359 16.6953 81.3828 16.0312 78.7891 16.0312Z" fill="white"/>
<path d="M108.523 33.6094H121.414V36.4688H108.523V33.6094ZM136.733 48V13.5234H143.881C149.038 13.5234 152.78 13.9375 155.108 14.7656C158.452 15.9375 161.061 17.9688 162.936 20.8594C164.827 23.75 165.772 27.1953 165.772 31.1953C165.772 34.6484 165.022 37.6875 163.522 40.3125C162.038 42.9375 160.1 44.875 157.709 46.125C155.334 47.375 151.998 48 147.702 48H136.733ZM140.038 44.7422H144.022C148.788 44.7422 152.092 44.4453 153.936 43.8516C156.53 43.0078 158.569 41.4922 160.053 39.3047C161.538 37.1016 162.28 34.4141 162.28 31.2422C162.28 27.9141 161.475 25.0703 159.866 22.7109C158.256 20.3516 156.014 18.7344 153.139 17.8594C150.983 17.2031 147.428 16.875 142.475 16.875H140.038V44.7422ZM198.481 12.6562C203.7 12.6562 208.067 14.3984 211.583 17.8828C215.098 21.3672 216.856 25.6562 216.856 30.75C216.856 35.7969 215.098 40.0781 211.583 43.5938C208.083 47.1094 203.809 48.8672 198.762 48.8672C193.653 48.8672 189.341 47.1172 185.825 43.6172C182.309 40.1172 180.552 35.8828 180.552 30.9141C180.552 27.6016 181.348 24.5312 182.942 21.7031C184.552 18.875 186.739 16.6641 189.505 15.0703C192.27 13.4609 195.262 12.6562 198.481 12.6562ZM198.645 16.0312C196.098 16.0312 193.684 16.6953 191.403 18.0234C189.122 19.3516 187.341 21.1406 186.059 23.3906C184.778 25.6406 184.137 28.1484 184.137 30.9141C184.137 35.0078 185.552 38.4688 188.38 41.2969C191.223 44.1094 194.645 45.5156 198.645 45.5156C201.317 45.5156 203.786 44.8672 206.052 43.5703C208.333 42.2734 210.106 40.5 211.372 38.25C212.653 36 213.294 33.5 213.294 30.75C213.294 28.0156 212.653 25.5469 211.372 23.3438C210.106 21.125 208.317 19.3516 206.005 18.0234C203.692 16.6953 201.239 16.0312 198.645 16.0312ZM256.283 13.5234H259.752V44.6719H272.994V48H256.283V13.5234ZM287.562 13.5234H291.008V48H287.562V13.5234ZM304.967 41.5781L307.897 39.8203C309.959 43.6172 312.342 45.5156 315.045 45.5156C316.202 45.5156 317.288 45.25 318.303 44.7188C319.319 44.1719 320.092 43.4453 320.623 42.5391C321.155 41.6328 321.42 40.6719 321.42 39.6562C321.42 38.5 321.03 37.3672 320.248 36.2578C319.17 34.7266 317.202 32.8828 314.342 30.7266C311.467 28.5547 309.678 26.9844 308.975 26.0156C307.756 24.3906 307.147 22.6328 307.147 20.7422C307.147 19.2422 307.506 17.875 308.225 16.6406C308.944 15.4062 309.952 14.4375 311.248 13.7344C312.561 13.0156 313.983 12.6562 315.514 12.6562C317.139 12.6562 318.655 13.0625 320.061 13.875C321.483 14.6719 322.983 16.1484 324.561 18.3047L321.748 20.4375C320.452 18.7188 319.342 17.5859 318.42 17.0391C317.514 16.4922 316.522 16.2188 315.444 16.2188C314.053 16.2188 312.913 16.6406 312.022 17.4844C311.147 18.3281 310.709 19.3672 310.709 20.6016C310.709 21.3516 310.866 22.0781 311.178 22.7812C311.491 23.4844 312.061 24.25 312.889 25.0781C313.342 25.5156 314.827 26.6641 317.342 28.5234C320.327 30.7266 322.373 32.6875 323.483 34.4062C324.592 36.125 325.147 37.8516 325.147 39.5859C325.147 42.0859 324.194 44.2578 322.288 46.1016C320.397 47.9453 318.092 48.8672 315.373 48.8672C313.28 48.8672 311.381 48.3125 309.678 47.2031C307.975 46.0781 306.405 44.2031 304.967 41.5781ZM338.614 16.875V13.5234H357.528V16.875H349.841V48H346.325V16.875H338.614Z" fill="white"/>
</svg>
